<svg xmlns="http://www.w3.org/2000/svg" width="24" height="24" viewBox="0 0 24 24" version="1.1"
  id="Crypto-Currency-Bitcoin-Circle--Streamline-Ultimate">
  <path
    d="M11.040000000000001 0.035904C8.6556 0.237768 6.436751999999999 1.1044559999999999 4.596 2.552928C0.097776 6.092592 -1.29048 12.297192 1.276704 17.388C3.326592 21.452952000000003 7.457352 24 12 24C13.889111999999999 24 15.703296 23.569944 17.388 22.722792000000002C19.507656 21.656928 21.267984000000002 19.983552 22.444584000000003 17.916C23.304456000000002 16.404984000000002 23.866968 14.548704 23.966616000000002 12.89328C23.975592 12.744384 23.992176 12.616848000000001 24.003456 12.609863999999998C24.01476 12.60288 24.023832000000002 12.314304 24.02364 11.968584C24.023424000000002 11.622864 24.014256000000003 11.354208 24.00324 11.37156C23.99148 11.390136 23.976528000000002 11.286336 23.966952000000003 11.11956C23.872152 9.468672000000002 23.307096 7.599624 22.444584000000003 6.0840000000000005C20.588616000000002 2.822664 17.317152 0.606696 13.620000000000001 0.106584C12.849120000000001 0.002304 11.782104 -0.026928000000000004 11.040000000000001 0.035904M11.256 1.5270480000000002C9.797136 1.6568640000000001 8.65356 1.963488 7.427904 2.553528C5.321688 3.5674560000000004 3.5674560000000004 5.321688 2.553528 7.427904C2.027976 8.519616 1.71852 9.584952 1.567056 10.824C1.5064080000000002 11.320152 1.5064080000000002 12.679848 1.567056 13.176C1.81272 15.185736 2.561544 16.996488 3.7758 18.517104000000003C5.399928 20.55108 7.65804 21.8952 10.200000000000001 22.341144C10.841736 22.453704000000002 11.13348 22.475496 12 22.475496C12.866520000000001 22.475496 13.158263999999999 22.453704000000002 13.8 22.341144C16.060752 21.944544 18.15036 20.808624 19.687992 19.140432C21.236616 17.460288 22.148112 15.479424 22.432512 13.176C22.493904 12.67884 22.493904 11.321159999999999 22.432512 10.824C22.183896 8.810256 21.431592 6.989808000000001 20.225808 5.484C18.457656 3.2759280000000004 16.02936 1.9231680000000002 13.200000000000001 1.570032C12.913319999999999 1.534248 11.521080000000001 1.5034800000000001 11.256 1.5270480000000002M11.721624 4.801584C11.5818 4.8553679999999995 11.399016 5.023176 11.320536 5.169816C11.270280000000001 5.263728 11.267688000000001 5.2999920000000005 11.260728 6.004968L11.253456 6.741936 10.036728 6.748968L8.82 6.756 8.693520000000001 6.813168C8.534544 6.885 8.347007999999999 7.0854479999999995 8.294448 7.239696C8.259456 7.342392 8.255808 7.791336 8.255808 12C8.255808 16.208664 8.259456 16.657608 8.294448 16.760304C8.347007999999999 16.914552 8.534544 17.115000000000002 8.693520000000001 17.186832000000003L8.82 17.244 10.036728 17.251032000000002L11.253456 17.258064 11.260728 17.995032000000002C11.269008 18.83448 11.266632 18.823415999999998 11.486088 19.039800000000003C11.769143999999999 19.318848 12.230856000000001 19.318848 12.513912000000001 19.039800000000003C12.733416 18.823392000000002 12.730991999999999 18.834623999999998 12.739272 17.994L12.746568 17.256 13.166231999999999 17.256C13.39704 17.256 13.690776 17.244672 13.818936 17.230800000000002C15.146496 17.087328 16.203936 16.099439999999998 16.45308 14.769912C16.504032000000002 14.497895999999999 16.50372 14.003688 16.452384 13.716000000000001C16.351344 13.149672 16.073832000000003 12.603167999999998 15.675672 12.18636L15.498336 12.00072 15.680496000000002 11.807088C16.217736000000002 11.235984 16.489488 10.54872 16.491864 9.755064C16.493376 9.25212 16.393128 8.82768 16.169712 8.391C15.70476 7.4821919999999995 14.8296 6.878424 13.818936 6.7692000000000005C13.690776 6.7553279999999996 13.39704 6.744 13.166231999999999 6.744L12.746568 6.744 12.739272 6.006C12.730991999999999 5.165376 12.733416 5.176608 12.513912000000001 4.9602C12.311015999999999 4.760184000000001 11.994144 4.696752 11.721624 4.801584M9.749808 9.749232000000001L9.756 11.244 11.76 11.243232L13.764000000000001 11.242488 13.956 11.177783999999999C14.406528000000002 11.025960000000001 14.795160000000001 10.636248 14.92944 10.201608C15.123168 9.574656000000001 14.879904 8.883408 14.33436 8.510664C14.24448 8.449248 14.090160000000001 8.369520000000001 13.991448 8.333496L13.812000000000001 8.268 11.777808 8.261232000000001L9.743640000000001 8.25444 9.749808 9.749232000000001M0.010488 12C0.010488 12.349800000000002 0.013848 12.492912 0.017928 12.318C0.022032000000000003 12.143088 0.022032000000000003 11.856912000000001 0.017928 11.682C0.013848 11.507088 0.010488 11.6502 0.010488 12M9.76164 12.758376000000002C9.751944 12.768072000000002 9.744 13.444152 9.744 14.260776L9.744 15.745560000000001 11.778 15.738768000000002L13.812000000000001 15.732000000000001 13.991448 15.666504C14.623128000000001 15.435984000000001 15.03504 14.81448 14.990952000000002 14.158392000000001C14.965560000000002 13.780175999999999 14.833535999999999 13.482936 14.572608 13.216488C14.38908 13.029048 14.187576 12.90024 13.956 12.822312000000002L13.764000000000001 12.757680000000002 11.771640000000001 12.749208C10.675824 12.744552 9.771336 12.748680000000002 9.76164 12.758376000000002"
    stroke="none" fill="currentcolor" fill-rule="evenodd"></path>
</svg>