<svg xmlns="http://www.w3.org/2000/svg" width="24" height="24" viewBox="0 0 24 24" version="1.1" id="Money-Wallet--Streamline-Ultimate">
	<path d="M14.70384 0.289152C14.639952000000001 0.299856 14.511432000000001 0.3318 14.418263999999999 0.36009599999999997C14.318040000000002 0.390528 12.064704 1.503648 8.900447999999999 3.0857760000000005C4.680288 5.19588 3.5330640000000004 5.760096 3.462024 5.760408C3.359088 5.7608880000000005 3.006696 5.816016 2.85216 5.855808C1.496904 6.204744000000001 0.45386400000000005 7.242768 0.10932 8.585424C-0.001296 9.016536 0.000888 8.892864 0.000888 14.748000000000001C0.000888 20.598096 -0.001296 20.47392 0.108576 20.910576C0.434784 22.207032 1.455144 23.253216000000002 2.746872 23.615688C3.24588 23.755704 2.639592 23.745552 11.016 23.754192C16.045776 23.759376000000003 18.792552 23.753712 18.999503999999998 23.737776C19.379064 23.70852 19.61196 23.663304 19.933775999999998 23.556456C20.857584000000003 23.249664 21.631728 22.586952 22.075752 21.72276C22.400952 21.089807999999998 22.481544 20.71884 22.504248 19.750488L22.519199999999998 19.112952 22.654944 19.06032C22.986888 18.931608 23.40084 18.583536 23.625744 18.244008C23.800344000000003 17.980464 23.960232 17.563152 23.981328 17.316C23.984712000000002 17.276400000000002 23.993112 17.9352 24 18.78C24.006888 19.6248 24.012528000000003 17.799599999999998 24.012528000000003 14.724C24.012528000000003 11.6484 24.006888 9.834 24 10.692C23.993112 11.55 23.984904 12.218112000000001 23.981736 12.176688C23.96424 11.946888 23.785248 11.494632 23.603304 11.220552000000001C23.405784 10.922952 22.9968 10.586184000000001 22.653503999999998 10.438416L22.519008 10.380504 22.504344 9.756264000000002C22.496184 9.409224 22.474415999999998 9.036071999999999 22.455288 8.916C22.219752 7.436688000000001 21.125616 6.23556 19.68 5.8692720000000005C19.5546 5.837496000000001 19.40304 5.804448 19.343208 5.795808L19.234416 5.780112 18.115175999999998 3.5440560000000003C17.101632 1.519152 16.980456 1.288824 16.831968 1.104816C16.487424 0.67788 16.025712000000002 0.40147200000000005 15.483888 0.29772C15.295344000000002 0.261624 14.894088 0.257208 14.70384 0.289152M14.736 1.8547440000000002C14.637 1.899336 12.8496 2.790264 10.764 3.834576L6.972 5.733336 12.246024 5.73468L17.520072000000003 5.736 16.608936 3.913848C16.107816 2.91168 15.665736 2.055192 15.626544 2.010576C15.501648000000001 1.8683040000000002 15.328560000000001 1.7920320000000003 15.108287999999998 1.7822400000000003C14.931768000000002 1.7743680000000002 14.90124 1.7803200000000001 14.736 1.8547440000000002M3.468 7.274688C2.659584 7.375536 1.933152 7.94868 1.65792 8.702832C1.501848 9.130488 1.511976 8.710416 1.5121920000000002 14.740992C1.5123119999999999 18.445536 1.5205199999999999 20.27052 1.537512 20.376C1.570752 20.582136000000002 1.680696 20.893728 1.787712 21.085056C2.113776 21.668136 2.658792 22.062 3.3283679999999998 22.198439999999998C3.57108 22.247904 3.5857919999999996 22.248 11.238624 22.248C19.558032 22.248 19.079664 22.255416 19.476456 22.120079999999998C20.124 21.899231999999998 20.650199999999998 21.375287999999998 20.868912 20.733696000000002C20.964576 20.453064 20.999807999999998 20.171400000000002 20.999904 19.686L21 19.248 19.357224000000002 19.248C17.575680000000002 19.248 17.392176 19.237968 16.908 19.114056C16.101912000000002 18.9078 15.472800000000001 18.558024 14.883216000000001 17.98836C14.362055999999999 17.484792000000002 14.028312000000001 16.976376000000002 13.780175999999999 16.308C13.583424 15.778056 13.508808 15.349680000000001 13.5084 14.748000000000001C13.507895999999999 13.98072 13.674984000000002 13.295015999999999 14.02008 12.648C14.687184 11.397288 15.854304 10.557599999999999 17.28 10.302648C17.4462 10.272912 17.810232 10.264175999999999 19.244832000000002 10.255536000000001L21.005664 10.244904 20.993928 9.712463999999999C20.98356 9.242904 20.97504 9.153072 20.921736000000003 8.952C20.844624 8.661192 20.767319999999998 8.488368000000001 20.605895999999998 8.245992000000001C20.300784 7.787928000000001 19.844856 7.4718480000000005 19.26 7.312872L19.068 7.2606720000000005 11.352 7.2572160000000006C7.075776 7.2552959999999995 3.561096 7.263096000000001 3.468 7.274688M0.011808 14.748000000000001C0.011808 17.8236 0.014592 19.078224000000002 0.018000000000000002 17.53608C0.021408 15.993912 0.021408 13.477512 0.018000000000000002 11.944080000000001C0.014592 10.410624 0.011808 11.672400000000001 0.011808 14.748000000000001M17.506488 11.797416C16.582344000000003 11.952767999999999 15.769224000000001 12.548496000000002 15.342287999999998 13.383000000000001C14.710704000000002 14.617512 14.988864 16.071336000000002 16.035336 17.005104000000003C16.400976 17.331336 16.848048 17.554224 17.388 17.679456000000002C17.567591999999998 17.72112 17.721984000000003 17.724 19.776 17.724L21.972 17.724 22.099656 17.653296C22.242192000000003 17.574336 22.341144 17.472383999999998 22.421856000000002 17.321328L22.476 17.22 22.482456 14.792088C22.488864 12.37476 22.488672 12.363576 22.438368 12.229152000000001C22.371096 12.04932 22.199160000000003 11.877096 22.020024 11.810064C21.887928 11.760648 21.859344 11.760024 19.793088 11.762448C18.152184000000002 11.764368000000001 17.658192 11.771904 17.506488 11.797416M17.676000000000002 13.6644C17.415024 13.750560000000002 17.147736000000002 13.965768 17.016192 14.195664C16.876872 14.439167999999999 16.836264 14.756687999999999 16.908792000000002 15.035160000000001C17.020751999999998 15.465 17.403384 15.808584000000002 17.829696000000002 15.862128C18.210792 15.909984000000001 18.531024 15.805296 18.787152 15.549168C18.949776 15.386544 19.03896 15.235800000000001 19.091208 15.035160000000001C19.226712000000003 14.51496 18.975048 13.976400000000002 18.482736000000003 13.733088C18.311424 13.648416 18.28956 13.64376 18.037296 13.638383999999999C17.867256 13.634736 17.737536 13.644096000000001 17.676000000000002 13.6644" stroke="none" fill="currentcolor" fill-rule="evenodd"></path>
</svg>