<svg xmlns="http://www.w3.org/2000/svg" width="24" height="24" viewBox="0 0 24 24" version="1.1"
  id="Saving-Bank--Streamline-Ultimate">
  <path
    d="M11.724 0.279336C11.531304 0.30984 11.238504 0.390408 11.093424 0.45280800000000004C10.850783999999999 0.557184 0.603576 6.659736 0.49682400000000004 6.76344C0.446688 6.812136 0.376488 6.9114 0.340824 6.984C0.25332 7.162152 0.250488 7.415472 0.333912 7.60248C0.40720799999999996 7.766808000000001 0.604992 7.94916 0.773712 8.007984C0.895488 8.05044 1.29636 8.052 12 8.052C22.673256000000002 8.052 23.104824 8.050320000000001 23.22528 8.008320000000001C23.391648 7.9502880000000005 23.572464 7.784592 23.6568 7.612871999999999C23.792592 7.3363439999999995 23.728536 6.982296 23.503176 6.7635119999999995C23.396520000000002 6.659976 13.149000000000001 0.557088 12.907055999999999 0.453C12.655704 0.34487999999999996 12.380232 0.286776 12.072000000000001 0.27684000000000003C11.920200000000001 0.271944 11.7636 0.273072 11.724 0.279336M11.834472 1.800984C11.776416000000001 1.812936 11.672616 1.852704 11.603784 1.889352C11.534952 1.926 9.754272 2.982 7.646736 4.236L3.814848 6.516 7.907424 6.522072C10.158336 6.525408 13.841616000000002 6.525408 16.092503999999998 6.522072L20.185008 6.516 16.270536 4.188C14.117591999999998 2.9076000000000004 12.320136000000002 1.8474 12.276168 1.831992C12.158016 1.7905920000000002 11.954448 1.776288 11.834472 1.800984M2.388 9.704112C2.225088 9.758112 2.14644 9.809327999999999 2.033328 9.935136C1.8162960000000001 10.176528 1.8369119999999999 9.661752 1.829088 15.036C1.824216 18.392712000000003 1.8298800000000002 19.833072 1.848408 19.941552C1.8628319999999998 20.025984 1.894776 20.134536 1.9193760000000002 20.182776C1.9818 20.305128 2.141784 20.458728 2.2753200000000002 20.524488L2.388 20.580000000000002 4.164 20.580000000000002L5.94 20.580000000000002 6.0600000000000005 20.516064C6.203832 20.439456 6.334416000000001 20.307144 6.411456 20.16L6.468 20.052 6.47424 15.175512L6.480456 10.299024 6.430392 10.165224C6.368832 10.000704 6.190392 9.810168 6.030432 9.738168C5.857968 9.660552000000001 5.597688 9.664223999999999 5.424 9.746712C5.256096 9.826464 5.122488000000001 9.960096 5.042712 10.128L4.98 10.26 4.973736000000001 14.67L4.967496000000001 19.080000000000002 4.164192 19.080000000000002L3.3608640000000003 19.080000000000002 3.354432 14.682C3.348264 10.463424 3.3461760000000003 10.27932 3.303456 10.169136C3.2406240000000004 10.007136000000001 3.053424 9.810576000000001 2.89848 9.743928C2.745936 9.678288 2.519256 9.660624 2.388 9.704112M10.236 9.704064C10.005192 9.780672000000001 9.846312 9.918336 9.746712 10.128L9.684000000000001 10.26 9.684000000000001 15.144L9.684000000000001 20.028 9.736848 20.142432C9.811056 20.303136000000002 10.001568 20.481168 10.164624 20.542176C10.294824 20.590896 10.335744 20.592 12.000648 20.592C13.613232 20.592 13.709832000000002 20.5896 13.82304 20.546568C14.07 20.452728 14.250816 20.245896 14.301552000000001 19.999224C14.323319999999999 19.893408 14.328503999999999 18.708503999999998 14.323104 15.06L14.316 10.26 14.253288 10.128C14.173512 9.960096 14.039904 9.826464 13.872 9.746712C13.698312000000001 9.664223999999999 13.438032 9.660552000000001 13.265568 9.738168C13.105896 9.810048 12.927144 10.000728 12.865824 10.164624C12.816047999999999 10.297656 12.816 10.302864 12.816 14.688912L12.816 19.080000000000002 12 19.080000000000002L11.184000000000001 19.080000000000002 11.184000000000001 14.688912C11.184000000000001 10.302864 11.183952 10.297656 11.134176 10.164624C11.073576000000001 10.002672 10.894055999999999 9.809664 10.741056 9.741984C10.602144 9.680544 10.361352 9.662472000000001 10.236 9.704064M18.067008 9.704232000000001C17.841768000000002 9.767688000000001 17.632464000000002 9.969792 17.557152000000002 10.196520000000001C17.523408 10.298112000000001 17.520192 10.8114 17.525760000000002 15.180888000000001L17.532 20.052 17.588544 20.16C17.665584000000003 20.307144 17.796167999999998 20.439456 17.94 20.516064L18.06 20.580000000000002 19.836000000000002 20.580000000000002L21.612000000000002 20.580000000000002 21.724680000000003 20.524488C21.858216000000002 20.458728 22.0182 20.305128 22.080624 20.182776C22.105224 20.134536 22.137168 20.025984 22.151592 19.941552C22.17012 19.833072 22.175784 18.392712000000003 22.170912 15.036C22.163064000000002 9.646344 22.185096 10.174871999999999 21.957936 9.926304C21.799319999999998 9.75276 21.64572 9.685488000000001 21.408 9.685488000000001C21.17028 9.685488000000001 21.01668 9.75276 20.858064000000002 9.926304C20.631384 10.174344 20.652863999999997 9.693456000000001 20.645568 14.682L20.639136 19.080000000000002 19.835808 19.080000000000002L19.032504 19.080000000000002 19.026264 14.67L19.02 10.26 18.957288 10.128C18.796560000000003 9.789672000000001 18.412512 9.606864 18.067008 9.704232000000001M0.749808 22.275000000000002C0.59292 22.335288 0.399912 22.518624 0.330168 22.673568C0.252552 22.846032 0.256224 23.106312000000003 0.338712 23.28C0.418464 23.447904 0.552096 23.581512 0.72 23.661288L0.852 23.724 12 23.724L23.148 23.724 23.28 23.661288C23.618664 23.500416 23.795136000000003 23.138592 23.704152 22.79172C23.640072 22.5474 23.4708 22.360536 23.23104 22.269432000000002C23.114352 22.22508 22.845144 22.224024 11.993736 22.225248C0.89688 22.226496 0.8757600000000001 22.226592 0.749808 22.275000000000002"
    stroke="none" fill="currentcolor" fill-rule="evenodd"></path>
</svg>