<svg xmlns="http://www.w3.org/2000/svg" width="24" height="24" viewBox="0 0 24 24" version="1.1"
  id="Credit-Card--Streamline-Ultimate">
  <path
    d="M4.944 0.015864C4.007208 0.165024 3.289104 0.8168399999999999 3.05772 1.728C3.0144480000000002 1.898376 3.012 2.022816 3.012 4.056L3.012 6.204 3.0675120000000002 6.31668C3.0980160000000003 6.378648 3.167664 6.474024 3.222264 6.528624000000001C3.371976 6.678312 3.4840799999999996 6.726528 3.711552 6.739032C3.8856 6.748583999999999 3.922536 6.742704000000001 4.047552 6.6855839999999995C4.274592 6.581832 4.4410799999999995 6.385104 4.476024 6.179280000000001C4.484904 6.126864 4.497384 6.065088 4.50372 6.042C4.514664 6.002088 4.963512 6 13.501128000000001 6L22.486992 6 22.493496 9.834L22.5 13.668000000000001 22.562256 13.8C22.637712 13.959936 22.777896 14.104224000000002 22.935144 14.183736000000001C23.030664 14.232024 23.087064 14.242752 23.244 14.242392C23.462808 14.241912000000001 23.59584 14.194368 23.745096 14.063328C23.840040000000002 13.979976 23.9712 13.774104000000001 23.981664 13.692C23.985048 13.6656 23.993280000000002 15.528599999999999 24 17.832L24.012192000000002 22.02 24.01488 16.692C24.016344 13.7616 24.01008 9.2256 24.000936 6.612C23.984616000000003 1.936152 23.983584 1.857312 23.935728 1.692C23.697624 0.869496 23.138736 0.310128 22.308 0.062904L22.14 0.012912000000000002 13.572000000000001 0.009600000000000001C8.8596 0.0078000000000000005 4.977 0.010608000000000001 4.944 0.015864M5.024592 1.538184C4.828488 1.594992 4.59228 1.8358800000000002 4.536816 2.035632C4.521624 2.090304 4.512216 2.574672 4.512144 3.306L4.5120000000000005 4.488 13.5 4.488L22.488 4.488 22.488 3.3009120000000003C22.488 2.156184 22.486224 2.1090240000000002 22.437936 1.979976C22.37112 1.801392 22.198608 1.62888 22.020024 1.562064L21.8862 1.512 13.493088 1.5141600000000002C8.527488 1.515456 5.069208000000001 1.525248 5.024592 1.538184M1.704 8.303016C0.879816 8.479344 0.279264 9.084192 0.070704 9.948C0.025512 10.135104 0.024336 10.293624000000001 0.024168 16.16616C0.024 22.123800000000003 0.024551999999999997 22.19448 0.07224 22.382160000000002C0.23755199999999999 23.032656 0.708576 23.560104000000003 1.355208 23.818800000000003C1.4443920000000001 23.854464 1.6052400000000002 23.907144 1.7126640000000002 23.935824L1.9080000000000001 23.988 10.536 23.988L19.164 23.988 19.368000000000002 23.934408C19.4802 23.90496 19.685232 23.824968000000002 19.823664 23.756664C20.04696 23.646456 20.102591999999998 23.6052 20.317632 23.390232C20.64372 23.06424 20.805336 22.775928 20.935824 22.287336L20.988 22.092 20.988 16.092L20.988 10.092 20.931288 9.877392C20.8542 9.5856 20.747016 9.361392 20.572848 9.12756C20.258304 8.70528 19.75128 8.402568 19.175736 8.293368000000001C18.999576 8.259960000000001 18.074472 8.256168 10.44336 8.25768C2.2862400000000003 8.259312 1.8989520000000002 8.261304 1.704 8.303016M2.088 9.767448C1.8306959999999999 9.800928 1.68084 9.919512 1.5798720000000002 10.169616C1.524288 10.307304 1.523976 10.314168 1.51716 11.526L1.51032 12.744 10.49916 12.744L19.488 12.744 19.488 11.536368000000001C19.488 10.221312 19.48284 10.163112 19.35228 10.007952C19.317888 9.967080000000001 19.237368 9.907104 19.173336 9.874656C18.899448 9.735864 19.48692 9.744456 10.488 9.747504000000001C5.9406 9.749039999999999 2.1606 9.758016 2.088 9.767448M1.517712 18.138L1.524 22.02 1.581192 22.13616C1.6518000000000002 22.279608 1.781568 22.376976000000003 1.98648 22.440264C2.1395280000000003 22.48752 2.2239600000000004 22.488 10.534176 22.488C19.889592 22.488 19.088736 22.503263999999998 19.270560000000003 22.32144C19.321128 22.270872 19.38804 22.16616 19.41924 22.08876L19.476 21.948 19.482288 18.102L19.488576000000002 14.256 10.5 14.256L1.511424 14.256 1.517712 18.138M11.94 15.782280000000002C11.085384000000001 15.933552 10.386336 16.461648 10.007232 17.242416C9.6018 18.0774 9.67656 19.077216 10.202328 19.851432000000003C10.334783999999999 20.046456 10.626 20.349696 10.82136 20.496C10.97784 20.613216 11.285928 20.777808 11.477304 20.846496000000002C11.875656000000001 20.98944 12.404976000000001 21.037392 12.808104000000002 20.967072C13.092264 20.917488000000002 13.448376000000001 20.789496 13.685471999999999 20.651736L13.873272 20.542632 14.034623999999999 20.636664C14.328672000000001 20.808024 14.656008000000002 20.92284 15.006768000000001 20.977656C15.267408000000001 21.018384 15.74808 20.993928 16.008 20.926728C16.94292 20.685024 17.674176 19.96224 17.922072 19.034856C17.97672 18.830376 17.983968 18.756024 17.985456 18.384C17.98692 18.017544 17.979984 17.93676 17.931096 17.750376000000003C17.7756 17.157408 17.413104 16.61796 16.92 16.245744C16.726392 16.099584 16.295208 15.899424 16.02 15.827952000000002C15.543576 15.704208 15.014016 15.724944 14.53824 15.885984000000002C14.330736000000002 15.956208 14.076096000000001 16.076112 13.959287999999999 16.1586L13.890576000000001 16.207128 13.635288 16.073136C13.080552 15.781944000000001 12.502392 15.682752 11.94 15.782280000000002M3.527856 17.278416C3.3460080000000003 17.333736000000002 3.158424 17.498712 3.0675120000000002 17.68332C3.02268 17.774304 3.012 17.835288 3.012 18C3.012 18.164712 3.02268 18.225696 3.0675120000000002 18.31668C3.13416 18.45204 3.2856240000000003 18.608664 3.4187760000000003 18.679944000000003C3.51468 18.731304 3.5338800000000004 18.732096000000002 4.844136 18.738768L6.172272 18.74556 6.299688000000001 18.68724C6.460416 18.613632 6.611400000000001 18.463776 6.685824000000001 18.303936C6.76692 18.129792000000002 6.76692 17.870208 6.685824000000001 17.696064C6.612216 17.537952 6.462048 17.387784 6.303936 17.314176L6.18 17.25648 4.884 17.258304C4.171200000000001 17.259312 3.5609280000000005 17.26836 3.527856 17.278416M12.07068 17.30124C11.865864 17.366784 11.699064 17.467655999999998 11.570184000000001 17.603928C11.151504000000001 18.046632 11.15448 18.726048 11.576952 19.152264C11.79744 19.37472 12.064584 19.488 12.368712000000002 19.488C12.717096000000002 19.488 12.991584000000001 19.35576 13.2666 19.055424000000002C13.474104000000002 18.828792 13.624775999999999 18.755832 13.884 18.756456C14.162904 18.757128 14.252784 18.80736 14.566848 19.137936C14.638824000000001 19.21368 14.741424 19.30104 14.794848 19.332024C15.396744 19.681248 16.170504 19.415112 16.417848 18.773832000000002C16.491408 18.583056 16.507152 18.270528000000002 16.452672 18.081648C16.311792 17.593032 15.871488000000001 17.257272 15.370368000000001 17.256287999999998C15.051744 17.255664 14.773944 17.390496000000002 14.498064000000001 17.679624C14.251464 17.93808 14.152199999999999 17.986895999999998 13.872 17.987544C13.575023999999999 17.988216 13.50876 17.951567999999998 13.169496 17.5992C12.883272 17.301912 12.442272 17.182344 12.07068 17.30124"
    stroke="none" fill="currentcolor" fill-rule="evenodd"></path>
</svg>