<svg xmlns="http://www.w3.org/2000/svg" width="24" height="24" viewBox="0 0 24 24" version="1.1"
  id="Saving-Piggy-Bank--Streamline-Ultimate">
  <path
    d="M3.62208 1.51224C3.2856 1.569192 3 1.8932400000000003 3 2.2181040000000003C3 2.2754640000000004 3.1296000000000004 3.22536 3.2880000000000003 4.329024C3.4464 5.432664 3.576 6.349944000000001 3.576 6.367416C3.576 6.384887999999999 3.499128 6.495672000000001 3.405168 6.613608C2.901408 7.245888 2.4449039999999997 8.024592 2.158176 8.740776L2.05536 8.997552 1.29768 9.004776L0.54 9.012 0.42 9.075936C0.276168 9.152544 0.145584 9.284856000000001 0.068544 9.432L0.012 9.540000000000001 0.005664 12.712176C-0.0006720000000000001 15.871751999999999 -0.000504 15.88488 0.049128000000000005 16.01748C0.11236800000000001 16.18656 0.27045600000000003 16.351176 0.45072 16.435655999999998L0.588 16.5 1.7101680000000001 16.507512L2.8323120000000004 16.515 2.866344 16.580808C2.921352 16.687176 3.2782319999999996 17.175552 3.5000400000000003 17.448C3.612864 17.5866 3.8813280000000003 17.876376 4.096584 18.091920000000002L4.488 18.48384 4.488408 19.81992C4.4887440000000005 20.896728 4.495608 21.187992 4.52376 21.320904C4.622592 21.787368 4.992 22.217376 5.450496 22.399704C5.699328 22.498632 5.965704 22.518048 6.903384000000001 22.505592C7.774488000000001 22.494 7.845528 22.486296 8.1 22.375824C8.38776 22.250928 8.704656 21.94716 8.8452 21.66156C8.947896 21.452832 8.999039999999999 21.218880000000002 8.999592 20.955288L9 20.754552 9.066 20.766168C9.102288 20.772552 9.288599999999999 20.805528000000002 9.48 20.83944C10.695264000000002 21.054792 11.935704000000001 21.047616 13.148760000000001 20.8182C13.325184 20.78484 13.471824000000002 20.760792000000002 13.474632 20.764775999999998C13.47744 20.768736 13.491048 20.9016 13.504871999999999 21.06C13.544112 21.509736 13.658616 21.768576 13.945032000000001 22.054968C14.206895999999999 22.316856 14.473512 22.445376000000003 14.850576 22.491504C14.974800000000002 22.506696 15.38688 22.512216000000002 15.897696 22.505544C16.775112 22.494072000000003 16.845 22.486536 17.1 22.375824C17.38776 22.250928 17.704656 21.94716 17.8452 21.66156C17.994384 21.358344000000002 17.998992 21.303912 18.000768 19.824L18.002376 18.492 18.223176 18.289248C19.460424 17.153280000000002 20.356944000000002 15.62268 20.761319999999998 13.956C20.83908 13.635552 20.920512 13.17408 20.941319999999997 12.936C20.96412 12.67524 20.959248000000002 12.683328 21.113471999999998 12.649296C22.259232 12.396336 23.298816 11.495327999999999 23.73648 10.37592C23.979888000000003 9.75336 24.070632 8.966424 23.93172 8.682504C23.672736 8.153064 22.9266 8.106311999999999 22.61496 8.599992C22.53132 8.732496 22.514736000000003 8.801400000000001 22.487544 9.129624C22.45248 9.552864 22.327392 9.930192 22.117728 10.24524C21.982104000000003 10.449024 21.70428 10.726583999999999 21.499608000000002 10.862808000000001C21.334224000000003 10.972871999999999 21.050616 11.112 20.991623999999998 11.112C20.967672 11.112 20.95344 11.06268 20.94144 10.938C20.914944000000002 10.663104 20.815296 10.111512 20.737896 9.811344C20.30424 8.129448 19.415184 6.720599999999999 18.036 5.52972C17.031503999999998 4.662384 15.52788 3.888408 14.124 3.5160240000000003C12.241584 3.016752 10.29744 2.9864640000000002 8.490504000000001 3.4282559999999997L8.208984000000001 3.4970879999999998 8.168184 3.4347840000000005C8.092128 3.318744 7.669055999999999 2.8988880000000004 7.476 2.7478800000000003C6.72816 2.162952 5.752104 1.761264 4.649472 1.584648C4.39224 1.5434640000000002 3.8232239999999997 1.483848 3.7560000000000002 1.491072C3.7428 1.492488 3.682536 1.502016 3.62208 1.51224M4.645176 3.186C4.651776000000001 3.2222880000000003 4.765608 4.008 4.898136 4.932C5.069352 6.125568 5.13468 6.6432720000000005 5.123832 6.72C5.098752 6.897023999999999 5.00964 7.054872 4.79868 7.296C4.1690640000000005 8.015616 3.732408 8.773032 3.411816 9.701496C3.26148 10.13688 3.2467919999999997 10.165512 3.108048 10.293384000000001C2.895648 10.489176 2.85756 10.497624 2.142 10.507752L1.512 10.516656000000001 1.512 12.758328L1.512 15 2.432184 15C3.1442159999999997 15 3.3772080000000004 15.007464 3.46212 15.033024C3.64212 15.087192000000002 3.773832 15.2004 3.9151920000000002 15.422376000000002C4.219632000000001 15.900456 4.36056 16.106616000000002 4.5444960000000005 16.342992C4.747056000000001 16.603272 5.349816 17.226167999999998 5.664 17.499888000000002C5.859816 17.67048 5.936952 17.794104 5.975976 17.999856C5.990328000000001 18.075576 6 18.704664 6 19.563264L6 21 6.741840000000001 21L7.48368 21 7.491840000000001 20.298000000000002C7.5 19.596504 7.5000480000000005 19.595904 7.563624000000001 19.46028C7.639776 19.297871999999998 7.795944 19.138608 7.943616 19.072776C8.134344 18.98772 8.325840000000001 18.9918 8.628 19.087344C9.470328 19.353648 10.350216000000001 19.48764 11.256 19.487544C12.115584 19.487448 12.864696 19.377936000000002 13.750824000000001 19.122792C14.108616000000001 19.019784 14.19012 19.004064 14.310192 19.01496C14.572152 19.038696 14.800104000000001 19.196088 14.932968 19.44492C14.98632 19.544856 14.988216000000001 19.570104 14.995296 20.274L15.002592 21 15.745296 21L16.488 21 16.488144 19.59C16.488216 18.813552 16.498535999999998 18.117432 16.511088 18.040728C16.555896 17.767176 16.595304 17.716728 17.138064 17.238048C18.328392 16.18824 19.167672 14.623895999999998 19.417296 12.989688C19.481808 12.567336000000001 19.506336 11.720424 19.4658 11.314488C19.355808 10.212864 19.065432 9.302592 18.539904 8.412C17.843088 7.231104 16.712856000000002 6.230952 15.324 5.566248C14.334743999999999 5.092776000000001 13.377816 4.823856 12.156 4.675968C11.738184 4.625376 10.371936 4.632696 9.948 4.687752000000001C9.377904 4.761816 8.848848 4.87872 8.196 5.0749200000000005C8.024568 5.126424 7.9510559999999995 5.136984 7.839767999999999 5.126040000000001C7.551144 5.097696 7.402728000000001 4.989264 7.179912000000001 4.644C6.98844 4.347288 6.596208 3.9461760000000004 6.324 3.76872C5.947776 3.5234400000000003 5.477184 3.3222000000000005 4.9723679999999995 3.190728C4.633944 3.1026000000000002 4.630032 3.1025519999999998 4.645176 3.186M9.804 6.773424C9.670632 6.8085119999999995 9.474072 6.943272 9.400152 7.050312C9.29424 7.203696 9.257088 7.32048 9.257088 7.5C9.257088 7.765032000000001 9.369696 7.9782 9.585048 8.120784C9.793248 8.258616 9.814344 8.260008 11.58 8.251631999999999C13.16208 8.24412 13.189752 8.243184000000001 13.296000000000001 8.192952C13.459128000000002 8.115864 13.597439999999999 7.982304 13.672536 7.829376C13.729415999999999 7.713552000000001 13.74 7.66188 13.74 7.5C13.74 7.33812 13.729415999999999 7.286447999999999 13.672536 7.170624C13.597439999999999 7.017696 13.459128000000002 6.884136 13.296000000000001 6.807048C13.189392 6.756672000000001 13.166736 6.755952 11.544 6.752088C10.457808 6.749496 9.867431999999999 6.75672 9.804 6.773424M6.0360000000000005 9.777864000000001C5.485992 9.914376 5.119104 10.463808 5.200512 11.028984C5.3317440000000005 11.939856 6.4541520000000006 12.317687999999999 7.102583999999999 11.669256C7.539384000000001 11.232456 7.554792000000001 10.56708 7.13868 10.109544C6.857544 9.800424 6.445056 9.676344 6.0360000000000005 9.777864000000001"
    stroke="none" fill="currentcolor" fill-rule="evenodd"></path>
</svg>