<svg xmlns="http://www.w3.org/2000/svg" width="24" height="24" viewBox="0 0 24 24" version="1.1"
  id="Money-Bag-Dollar--Streamline-Ultimate">
  <path
    d="M11.724288 0.037296C11.50236 0.093192 11.249448 0.230376 11.076888 0.38848800000000006C10.9656 0.49048800000000004 10.835832 0.658176 10.628472 0.9680160000000001C10.468008 1.2078 10.33248 1.4089440000000002 10.327344 1.415016C10.322184 1.421064 9.856728 1.1968079999999999 9.292992000000002 0.916656C8.720088 0.631944 8.204496 0.390984 8.124 0.370296C7.929048000000001 0.320232 7.586328 0.32068800000000003 7.392 0.37128C6.837288 0.5156879999999999 6.400295999999999 0.9623759999999999 6.287736 1.500048C6.249168 1.6842480000000002 6.250176 1.9927920000000001 6.289944 2.174328C6.324024 2.329872 7.784472 5.28444 7.9159440000000005 5.463768C7.966632 5.5329120000000005 8.039136000000001 5.588184 8.152104 5.643768000000001C8.29452 5.713872 8.337912000000001 5.723832 8.495568 5.722632000000001C8.644464 5.7215039999999995 8.700336 5.709168 8.815296 5.652096C8.968968 5.5758 9.089496 5.456472000000001 9.171864 5.29908C9.215376 5.215896 9.226008 5.155656 9.226896 4.987032L9.228 4.7780879999999994 8.5008 3.322224C8.100864 2.521512 7.778376 1.861632 7.784184000000001 1.855824C7.789992000000001 1.850016 8.246832 2.071224 8.79936 2.347392C9.448608 2.671872 9.859728 2.863392 9.961536 2.88876C10.433952 3.006456 11.016096000000001 2.852256 11.352528 2.520264C11.426256 2.4475200000000004 11.619552 2.189592 11.782055999999999 1.9470960000000002L12.077544 1.5061920000000002 12.368328 1.9467360000000002C12.534504 2.1984719999999998 12.7176 2.444856 12.795576 2.521608C13.136328 2.857104 13.702056 3.0050160000000004 14.192136000000001 2.88672C14.312952000000001 2.85756 14.657160000000001 2.699496 15.365568 2.3478239999999997C15.916896 2.074128 16.368000000000002 1.854912 16.368000000000002 1.860672C16.368000000000002 1.866432 16.035912 2.53596 15.63 3.348528L14.892 4.825896 14.892336 5.034936C14.892624 5.214504 14.901648000000002 5.2609200000000005 14.956272 5.364C15.201336000000001 5.826456 15.795504 5.926776 16.155768000000002 5.5665119999999995C16.256111999999998 5.466192 16.366344 5.259312 17.039568 3.9079439999999996C17.534807999999998 2.9138640000000002 17.823 2.30844 17.848752 2.208C17.901936 2.000568 17.900664 1.64268 17.845992 1.44C17.736456 1.0338720000000001 17.436504 0.668304 17.064 0.48693600000000004C16.951800000000002 0.43231200000000003 16.795199999999998 0.37428 16.716 0.358008C16.520832000000002 0.317856 16.217712000000002 0.322824 16.030416 0.369216C15.932856000000001 0.39338399999999996 15.502199999999998 0.59316 14.860920000000002 0.911736C14.302608000000001 1.1890800000000001 13.841256000000001 1.416 13.835688 1.416C13.830096000000001 1.416 13.684199999999999 1.2054479999999999 13.511448 0.9480959999999999C13.317984000000001 0.65988 13.156224000000002 0.445584 13.090224000000001 0.39009600000000005C12.926904 0.252792 12.701880000000001 0.12393599999999999 12.52836 0.068376C12.321672000000001 0.002208 11.924568 -0.013152 11.724288 0.037296M6.6940800000000005 7.512072C6.542784 7.53792 6.400295999999999 7.615272 6.283392 7.734984C5.9349359999999995 8.091816 6.038568 8.685312 6.49104 8.924136L6.612 8.988 12.072000000000001 8.988L17.532 8.988 17.644392 8.930544C17.890368000000002 8.804808000000001 18.053328 8.562336 18.068136000000003 8.300016C18.086112 7.981944 17.933592 7.720848 17.647536 7.5800160000000005L17.485032 7.5 12.144504000000001 7.49664C9.20724 7.494792 6.754536000000001 7.501728 6.6940800000000005 7.512072M7.0680000000000005 9.764856000000002C6.943368 9.797544 6.819311999999999 9.8664 6.7222800000000005 9.956736C6.573048 10.095648 3.934416 13.171056 3.762192 13.406808C3.1070640000000003 14.303544 2.7279600000000004 15.253152 2.5512960000000002 16.44C2.48748 16.868616000000003 2.494056 17.881056 2.563416 18.307464C2.66244 18.916248 2.824392 19.469544 3.056544 19.992C3.7190879999999997 21.483168 4.791456 22.598976 6.252 23.316888000000002C6.7306799999999996 23.552184 7.021152 23.662632 7.4597999999999995 23.776128C8.32416 23.999784000000002 8.309136 23.99904 12.072000000000001 23.99904C15.834864 23.99904 15.81984 23.999784000000002 16.6842 23.776128C17.122848 23.662632 17.41332 23.552184 17.892 23.316888000000002C19.479864 22.536383999999998 20.617896 21.274752 21.248352 19.596C21.398927999999998 19.19508 21.509256 18.758112 21.590952 18.239112C21.657528000000003 17.81616 21.651912 16.838928 21.580176 16.362288C21.413472 15.254952000000001 21.026064 14.297880000000001 20.38692 13.414488C20.220216 13.184111999999999 17.574744 10.099248000000001 17.42148 9.956544000000001C17.29716 9.840792 17.141904 9.7704 16.971672 9.752592C16.458624 9.698976 16.039824 10.209864 16.185648 10.711488000000001C16.234584 10.879776 16.160040000000002 10.788288 17.734128000000002 12.612C18.440496000000003 13.4304 19.079016 14.181000000000001 19.153056 14.280000000000001C19.618032 14.901792 19.93584 15.661584000000001 20.076768 16.488336C20.128752 16.793328 20.15004 17.564664 20.11488 17.869368C20.044416 18.479952 19.876800000000003 19.050144 19.607328 19.596C19.083000000000002 20.658048 18.278064 21.45948 17.22 21.972888C16.755864 22.198104 16.3692 22.322568 15.792 22.432560000000002C15.578496000000001 22.47324 15.342047999999998 22.476 12.072000000000001 22.476C8.229936 22.476 8.507016 22.485623999999998 7.892568000000001 22.3308C7.240200000000001 22.166376000000003 6.493776 21.798912 5.976 21.387264C4.8853919999999995 20.520144 4.190040000000001 19.263672 4.02912 17.869368C3.99396 17.564664 4.015248 16.793328 4.067232 16.488336C4.206864 15.669192 4.519392 14.917944 4.980912 14.292C5.049048 14.1996 5.701848 13.432800000000002 6.431568 12.588000000000001C7.161312 11.7432 7.794744000000001 11.003400000000001 7.839192 10.944C8.12316 10.564536 7.9776240000000005 10.009128 7.542624 9.812208C7.429536000000001 9.760992000000002 7.178256 9.735936 7.0680000000000005 9.764856000000002M11.824752 11.28924C11.556096 11.389248 11.371776 11.618184000000001 11.331096 11.902416L11.315856 12.008808 11.147928 12.037848C10.468104 12.1554 9.855936 12.660456 9.593856 13.32C9.449472 13.683384 9.411552 14.217432 9.50424 14.582160000000002C9.600552 14.961167999999999 9.818520000000001 15.337056 10.09524 15.601344000000001C10.368 15.861863999999999 10.532016 15.944544 11.712 16.416456C12.3126 16.656648 12.843456 16.873296 12.891672000000002 16.897896C13.082904 16.995408 13.221768 17.26824 13.187448 17.478888C13.165248 17.61492 13.071432000000001 17.783687999999998 12.975336 17.860344C12.80448 17.996688 12.770904 18 11.556072 18C10.475736 18 10.437624000000001 18.00156 10.304328 18.051432000000002C10.137864 18.113712000000003 9.955464 18.2862 9.882432 18.45036C9.806352 18.621384 9.810264 18.882839999999998 9.891504000000001 19.056C9.970343999999999 19.224072000000003 10.104216000000001 19.357872 10.272 19.436256C10.3962 19.494287999999997 10.43112 19.498512 10.863192 19.507752L11.322384000000001 19.517568 11.334096 19.621512C11.358864 19.841136000000002 11.55108 20.090808 11.769624 20.187168C11.941608 20.263008000000003 12.204072 20.262264 12.37848 20.185416C12.611616000000001 20.082672000000002 12.816 19.795176 12.816 19.569984C12.816 19.494696 12.819552000000002 19.492032000000002 12.942 19.4754C13.553400000000002 19.392336 14.180736000000001 18.934608 14.470680000000002 18.36C14.626104000000002 18.05196 14.690688 17.762088 14.689872 17.376C14.689176 17.037336 14.635368000000001 16.807392 14.484048 16.496328C14.297376000000002 16.112568 14.022984000000001 15.81492 13.658736000000001 15.60108C13.571424 15.549816 12.99276 15.305064 12.372816 15.057192C11.463168 14.693496000000001 11.227368 14.590056 11.150976 14.521248C10.853736 14.253552 10.912704000000002 13.765416 11.265024 13.576944000000001C11.362295999999999 13.524912 11.384400000000001 13.523784 12.552 13.512L13.74 13.5 13.87572 13.436376000000001C14.036591999999999 13.360944 14.174015999999998 13.226591999999998 14.255448 13.065072C14.343672000000002 12.890112 14.341104000000001 12.615120000000001 14.24952 12.428591999999998C14.164560000000002 12.255648 14.013048 12.116304 13.839144 12.05124C13.717464000000001 12.005712 13.652784 12 13.259088 12L12.816 12 12.816 11.90784C12.816 11.78748 12.694056 11.544336000000001 12.5862 11.449656000000001C12.437304000000001 11.318904 12.318048 11.272488000000001 12.108 11.263488C11.982528 11.258112 11.884368 11.26704 11.824752 11.28924"
    stroke="none" fill="currentcolor" fill-rule="evenodd"></path>
</svg>