<svg xmlns="http://www.w3.org/2000/svg" width="24" height="24" viewBox="0 0 24 24" version="1.1"
  id="Currency-Dollar-Increase--Streamline-Ultimate">
  <path
    d="M9.924 0.014184C8.876136 0.11714400000000001 8.10432 0.305328 7.263168 0.662952C4.873272 1.679016 3.0893040000000003 3.7841039999999997 2.48148 6.305424C2.306808 7.030008 2.245632 7.624248000000001 2.262504 8.432903999999999C2.2776720000000004 9.159768 2.3346720000000003 9.598944000000001 2.499624 10.26C2.7985200000000003 11.457768 3.357792 12.561623999999998 4.15944 13.535952000000002C4.552008 14.01312 5.406696 14.795064 5.688 14.93448C5.774496 14.977344 5.836632000000001 14.987904 6 14.987544C6.238128000000001 14.986991999999999 6.373080000000001 14.937336 6.510840000000001 14.799576C6.661152 14.649263999999999 6.726191999999999 14.512032 6.7384319999999995 14.319456C6.759336 13.990248000000001 6.667896000000001 13.821408000000002 6.320424 13.547856000000001C5.980656 13.280327999999999 5.376768 12.663528000000001 5.1221760000000005 12.324C3.9407760000000005 10.748376 3.500568 8.771832 3.903624 6.852936C4.318248 4.878912000000001 5.628408 3.1646400000000003 7.416216 2.256864C8.114735999999999 1.902168 8.768136 1.693536 9.576 1.5672240000000002C9.960096 1.507152 11.027016 1.506216 11.417976000000001 1.565592C12.649104000000001 1.7525519999999999 13.802136 2.251488 14.736 3.001344C15.233471999999999 3.4008 15.761232 3.979704 16.112616000000003 4.511376C17.08452 5.981976 17.436432 7.690583999999999 17.134632 9.473400000000002C17.068632 9.863208 17.117231999999998 10.061232 17.331408000000003 10.275408C17.481216 10.425216 17.613216 10.475544 17.856 10.475424C18.03036 10.475352 18.077424 10.466088 18.18 10.411728C18.321528 10.336728 18.456744 10.201824 18.524496000000003 10.068C18.57336 9.97152 18.641904 9.6396 18.70044 9.216000000000001C18.749856 8.85852 18.74244 7.579872 18.688752 7.2C18.42564 5.338272 17.623056 3.70716 16.336392 2.419368C15.040248 1.1220480000000002 13.376256000000001 0.306912 11.52 0.06C11.235792 0.0222 10.157496 -0.00876 9.924 0.014184M10.320216 3.773136C10.059887999999999 3.8310480000000005 9.820295999999999 4.084392 9.76488 4.360320000000001L9.735096 4.508616 9.582552000000002 4.535184C8.812896 4.669224 8.153592 5.281872 7.940232000000001 6.0612960000000005C7.86924 6.320712 7.863504000000001 6.843888 7.9289760000000005 7.0920000000000005C8.057064 7.577520000000001 8.376984 8.044152 8.759592 8.303568C8.968248 8.445048 9.074688 8.492376 10.164 8.928C10.728648 9.153816 11.241744 9.364464 11.304192 9.396096C11.70168 9.597528 11.72268 10.167456 11.34132 10.403376L11.223888 10.476 10.033368000000001 10.488L8.842872 10.5 8.683488 10.578504C8.501016 10.66836 8.394336000000001 10.77816 8.309544 10.963344C8.257776 11.076456 8.251608000000001 11.117735999999999 8.260968 11.288447999999999C8.273760000000001 11.521368 8.322648 11.630664 8.486088 11.7918C8.670096000000001 11.973192 8.774712000000001 12 9.2988 12L9.739776 12 9.756288 12.102C9.794496 12.338304 9.934368000000001 12.539136000000001 10.149192 12.66612C10.289544 12.749088 10.568472 12.76896 10.749312 12.708888000000002C10.993248000000001 12.627863999999999 11.198808000000001 12.375792 11.243376 12.103007999999999C11.260752 11.996616 11.26764 11.991696000000001 11.436 11.964936C12.021648 11.871888 12.63372 11.403312 12.910344000000002 10.836312C13.392552 9.847824000000001 13.0392 8.665608 12.094512 8.106767999999999C12.011735999999999 8.057784 11.426496 7.810656000000001 10.793976 7.5576C9.798624 7.159344 9.632616 7.085808000000001 9.559584 7.010736C9.441888 6.889752 9.403512 6.805032000000001 9.389976 6.636216C9.374832 6.447792000000001 9.445128 6.273599999999999 9.584352 6.154416C9.760344 6.003768 9.795696 6 11.031456 6C12.30696 6 12.302015999999998 6.0006960000000005 12.513912000000001 5.7918C12.677351999999999 5.6306639999999994 12.72624 5.521368 12.739032 5.288448C12.748392 5.117736 12.742224000000002 5.076456 12.690456000000001 4.963344C12.605856000000001 4.778544 12.499056 4.668384 12.318144 4.57932L12.160416000000001 4.50168 11.711400000000001 4.492008L11.262384 4.48236 11.233344 4.347192000000001C11.174424 4.072920000000001 10.93164 3.8286000000000002 10.660824000000002 3.771024C10.514184 3.739872 10.468416000000001 3.740136 10.320216 3.773136M17.721624 12.049392C17.580576 12.103871999999999 17.397047999999998 12.273216000000001 17.322408000000003 12.417816C17.287128000000003 12.486144 17.268408 12.576384 17.260824 12.714528000000001C17.250648 12.899832000000002 17.254968 12.923256000000002 17.325456 13.066464000000002C17.412528000000002 13.243319999999999 17.522472 13.349207999999999 17.710895999999998 13.437576L17.844 13.5 19.254383999999998 13.512L20.664744 13.524000000000001 18.738384 15.447768000000002C17.35428 16.830000000000002 16.768608 17.399256 16.657872 17.470032C16.422864 17.620224 16.167936 17.693376 15.876 17.694456C15.723336 17.695032 15.579216 17.680368 15.48 17.654208C15.3942 17.631576 14.028 17.26668 12.444 16.84332C10.86 16.41996 9.461400000000001 16.057752 9.336 16.038432C9.048960000000001 15.994176 8.566032 16.011984 8.28 16.077336C7.785528 16.190352 7.405416000000001 16.376328 7.004472000000001 16.701384C6.9074160000000004 16.780079999999998 5.487792 18.187176 3.8497680000000005 19.828224000000002C0.5219039999999999 23.162280000000003 0.759096 22.899264 0.7586160000000001 23.256C0.758328 23.470848 0.8116800000000001 23.60832 0.956256 23.76516C1.1120880000000002 23.934216 1.243344 23.988 1.5 23.988C1.662696 23.987976 1.739688 23.976696 1.812 23.942304C1.877352 23.911224 2.8848000000000003 22.921944 4.968 20.843208L8.028 17.78976 8.232 17.691C8.519736 17.551704 8.695224 17.512536 8.974728 17.52516C9.183504000000001 17.534592 9.473424 17.607623999999998 12.216000000000001 18.341448C13.8726 18.784704 15.309000000000001 19.160688 15.408 19.176936C15.661176 19.218504 16.122936 19.21296 16.376976000000003 19.165296C16.842864 19.077888 17.275752 18.891384 17.649 18.617256C17.777256 18.523056 18.511152 17.808144 19.793088 16.528560000000002L21.742176 14.583048 21.749088 16.009536C21.755856 17.407176 21.757032000000002 17.438184 21.807047999999998 17.544C21.884136 17.707128 22.017696 17.84544 22.170624 17.920536C22.286448 17.977415999999998 22.33812 17.988 22.5 17.988C22.66188 17.988 22.713552 17.977415999999998 22.829376 17.920536C22.982304 17.84544 23.115864 17.707128 23.192952000000002 17.544C23.243807999999998 17.436384 23.244024 17.427192 23.250552000000003 15.032376000000001L23.257104 12.628775999999998 23.205047999999998 12.4896C23.142336 12.322032 22.991016 12.152496 22.831296 12.070896000000001L22.716 12.012 20.28 12.00708C17.908032000000002 12.00228 17.840784 12.003384 17.721624 12.049392"
    stroke="none" fill="currentcolor" fill-rule="evenodd"></path>
</svg>