<svg xmlns="http://www.w3.org/2000/svg" width="24" height="24" viewBox="0 0 24 24" version="1.1"
  id="Credit-Card-Visa--Streamline-Ultimate">
  <path
    d="M1.836 3.02652C1.6269600000000002 3.056808 1.384152 3.1353120000000003 1.177176 3.239544C0.626064 3.517104 0.250848 4.013688 0.064176 4.712664L0.012 4.908 0.012 12.036L0.012 19.164 0.066144 19.368000000000002C0.277536 20.164536 0.8438640000000001 20.703792 1.7126640000000002 20.935824L1.9080000000000001 20.988 12.036 20.988L22.164 20.988 22.368000000000002 20.934408C22.4802 20.90496 22.682472 20.826336 22.817496000000002 20.759712C23.017176 20.661216 23.103144 20.6004 23.27808 20.433936C23.396376 20.321352 23.53104 20.172192000000003 23.577312000000003 20.102448C23.768352 19.814664 23.934383999999998 19.394351999999998 23.967144 19.115664C23.975568 19.043904 23.991816 18.990936 24.00324 18.997992C24.014904 19.005216 24.024 15.940655999999999 24.024 12.002832C24.024 7.356719999999999 24.015912 4.98984 24 4.98C23.986800000000002 4.97184 23.976 4.929744 23.976 4.886424C23.976 4.751832 23.883912000000002 4.437215999999999 23.782128 4.224C23.508816 3.651576 23.021664 3.2703599999999997 22.300488 3.064632L22.116 3.012 12.048 3.008832C6.451512 3.007056 1.91604 3.0149280000000003 1.836 3.02652M1.9369679999999998 4.550688C1.7866799999999998 4.596888 1.652928 4.732272 1.58076 4.91124L1.524 5.0520000000000005 1.524 12.036L1.524 19.02 1.581192 19.13616C1.6518000000000002 19.279608 1.781568 19.376976000000003 1.98648 19.440264C2.13972 19.487592 2.226672 19.488 12.034176 19.488C20.913984000000003 19.488 21.940152 19.484184 22.052976 19.450680000000002C22.214328 19.402752 22.344504 19.274136000000002 22.41924 19.08876L22.476 18.948 22.476 11.964L22.476 4.98 22.418808 4.86384C22.3482 4.720392 22.218432 4.623024 22.01352 4.559736C21.860232 4.512408 21.775728 4.512024 11.95548 4.51368C3.3041760000000004 4.51512 2.037456 4.519824 1.9369679999999998 4.550688M0.011832 12.024000000000001C0.011832 15.885 0.014616 17.464512 0.018000000000000002 15.534C0.021384 13.603512 0.021384 10.444512 0.018000000000000002 8.514C0.014616 6.583512 0.011832 8.163 0.011832 12.024000000000001M3.527856 8.278416C3.3460080000000003 8.333736 3.158424 8.498712 3.0675120000000002 8.68332C3.012288 8.7954 3.011952 8.801832 3.0042 9.912C2.9958 11.111304 3.009696 11.374416 3.1113839999999997 11.94C3.3136799999999997 13.065216000000001 3.719472 14.071895999999999 4.3642080000000005 15.048C4.755096 15.639816 4.926144 15.763776 5.317200000000001 15.738696000000001C5.463408 15.729312000000002 5.516712 15.713424 5.6294640000000005 15.645696000000001C5.776464000000001 15.557376000000001 5.868 15.449664 6.137448 15.048C6.748272 14.137464000000001 7.1714400000000005 13.096464000000001 7.377599999999999 11.997192C7.492392 11.385144 7.5120000000000005 11.0958 7.5120000000000005 10.013544C7.5120000000000005 9.006408 7.498608 8.80056 7.4237280000000005 8.655744C7.355496 8.523792 7.202016 8.383464 7.0526159999999996 8.316408000000001C6.921096 8.257392 6.884544 8.251464 6.710688000000001 8.261016C6.484152 8.273472 6.371784 8.321856 6.222264000000001 8.471376C6.167664 8.525976 6.098016 8.621352 6.067512 8.68332C6.012384 8.795232 6.011904 8.804256 5.997312 10.008000000000001C5.989152 10.681248 5.971008 11.294688 5.956488 11.388C5.837592 12.151872 5.630424 12.835752 5.345952 13.403376000000002L5.2500480000000005 13.594752 5.16552 13.427376C4.907832 12.91716 4.703448 12.287880000000001 4.581168 11.628C4.532064 11.363112000000001 4.52652 11.239848 4.512096 10.092C4.494384 8.68248 4.497984 8.709696 4.300008 8.49012C4.16652 8.342064 3.96372 8.255544 3.7560000000000002 8.258088C3.6636 8.259216 3.5609280000000005 8.26836 3.527856 8.278416M9.527856000000002 8.278416C9.346008 8.333736 9.158424 8.498712 9.067512 8.68332L9.012 8.796 9.012 12L9.012 15.204 9.067512 15.316680000000002C9.098016 15.378648000000002 9.167664 15.474024 9.222264000000001 15.528623999999999C9.371784 15.678144 9.484152 15.726528000000002 9.710688000000001 15.738984000000002C9.884544 15.748536 9.921096 15.742608 10.052616 15.683591999999999C10.202016 15.616536 10.355496 15.476208 10.423728 15.344256000000001C10.50804 15.181224000000002 10.512 15.031032 10.512 12C10.512 8.97348 10.507944 8.818584 10.4244 8.65704C10.358208 8.529048 10.211952 8.392488 10.068 8.324280000000002C9.950112 8.268408 9.893544 8.256408 9.756 8.258088C9.663599999999999 8.259216 9.560928 8.26836 9.527856000000002 8.278416M12.756 8.295143999999999C12.663599999999999 8.314512 12.48 8.383344 12.348 8.448096000000001C11.945784 8.645424 11.64732 8.943696000000001 11.44752 9.348C11.286744 9.67332 11.246112 9.886272 11.262432 10.31784C11.27748 10.715328 11.33076 10.933776 11.494223999999999 11.268C11.738136 11.766767999999999 11.960208 11.996688 12.898079999999998 12.721464000000001C13.402056 13.110959999999999 13.586064 13.346688 13.628544 13.657272C13.6632 13.910832000000001 13.59324 14.080656 13.411176 14.184912C13.30884 14.24352 13.301687999999999 14.244096 12.540000000000001 14.256C11.797128 14.267616000000002 11.768640000000001 14.269800000000002 11.669016000000001 14.322984000000002C11.524992000000001 14.399904 11.382144 14.550072000000002 11.314176 14.696064C11.269368 14.792280000000002 11.25648 14.860272 11.25648 15C11.25648 15.139728 11.269368 15.20772 11.314176 15.303936C11.387784 15.462048 11.537952 15.612216 11.696064 15.685824C11.819208 15.743160000000001 11.825112 15.743544 12.631008000000001 15.74376C13.586927999999999 15.744048 13.686984 15.730535999999999 14.052 15.55188C14.454287999999998 15.355008000000002 14.754072 15.055224 14.951903999999999 14.652000000000001C15.112728 14.324184 15.153744 14.10984 15.137568 13.682160000000001C15.123216000000001 13.302816 15.072888 13.083383999999999 14.930591999999999 12.779736000000002C14.689344000000002 12.264936 14.441927999999999 12.004944 13.501920000000002 11.278536C12.997944 10.88904 12.813936 10.653312 12.771456 10.342728000000001C12.736512 10.087200000000001 12.805608000000001 9.91692 12.985224 9.816C13.091496000000001 9.756288 13.095696 9.755952 13.86 9.744C14.602872 9.732384000000001 14.63136 9.7302 14.730984000000001 9.677016C14.875008000000001 9.600096 15.017856000000002 9.449928 15.085824 9.303936C15.166920000000001 9.129792 15.166920000000001 8.870208 15.085824 8.696064C15.012216 8.537952 14.862048 8.387784 14.703936 8.314176C14.580336 8.256624 14.577792 8.25648 13.752 8.258184C13.12188 8.259504 12.883848 8.268336 12.756 8.295143999999999M18.396 8.271744C17.698128 8.381856 17.046984000000002 8.865744000000001 16.72164 9.516C16.618536 9.722064000000001 16.53816 10.019400000000001 16.512552 10.289568000000001C16.47804 10.653384 16.479552 14.945447999999999 16.514232 15.133104000000001C16.528655999999998 15.211176 16.556592 15.306192000000001 16.576272 15.344256000000001C16.644503999999998 15.476208 16.797984000000003 15.616536 16.947384 15.683591999999999C17.078904 15.742608 17.115456000000002 15.748536 17.289312000000002 15.738984000000002C17.515848000000002 15.726528000000002 17.628216000000002 15.678144 17.777736 15.528623999999999C17.832336 15.474024 17.901984000000002 15.378648000000002 17.932488 15.316680000000002C17.986871999999998 15.206304000000001 17.988144 15.186696 17.994864 14.358L18.001752 13.512 18.744864 13.512L19.488 13.512 19.488 14.251584000000001C19.488 14.991167999999998 19.505471999999997 15.207336 19.576272 15.344256000000001C19.644503999999998 15.476208 19.797984000000003 15.616536 19.947384 15.683591999999999C20.078904 15.742608 20.115456000000002 15.748536 20.289312000000002 15.738984000000002C20.515848000000002 15.726528000000002 20.628216000000002 15.678144 20.777736 15.528623999999999C20.832336 15.474024 20.901984000000002 15.378648000000002 20.932488 15.316680000000002L20.988 15.204 20.988 12.672L20.988 10.14 20.933304 9.939912C20.71956 9.158184 20.146296 8.567136 19.38 8.33844C19.196712 8.283719999999999 19.111296 8.272944 18.816 8.267184C18.6246 8.263440000000001 18.4356 8.265504 18.396 8.271744M18.6 9.77856C18.5274 9.793968 18.4356 9.8238 18.396 9.844896C18.275784 9.90888 18.140784 10.057392 18.074664 10.198392L18.012 10.332 18.004584 11.166L17.997168 12 18.743712000000002 12L19.490256000000002 12 19.483128 11.142L19.476 10.284 19.411128 10.161048000000001C19.254648000000003 9.864384000000001 18.926016 9.70944 18.6 9.77856"
    stroke="none" fill="currentcolor" fill-rule="evenodd"></path>
</svg>