<svg xmlns="http://www.w3.org/2000/svg" width="24" height="24" viewBox="0 0 24 24" version="1.1"
  id="Contactless-Payment--Streamline-Ultimate">
  <path
    d="M5.676 0.016224000000000002C4.427856 0.122208 3.2226000000000004 0.604368 2.2680000000000002 1.379544C1.025712 2.38836 0.20457599999999998 3.902064 0.034992 5.496C-0.014568 5.961744 -0.010920000000000001 6.258744 0.046200000000000005 6.40908C0.116232 6.593424 0.24136800000000003 6.729840000000001 0.42184800000000006 6.8187120000000006C0.55596 6.884712 0.603624 6.895632 0.7535040000000001 6.894672000000001C0.959928 6.893352 1.097448 6.841152 1.244424 6.708384000000001C1.449408 6.523175999999999 1.4827679999999999 6.426048000000001 1.51248 5.928C1.536408 5.526624 1.575768 5.27688 1.671144 4.92156C2.013744 3.6450959999999997 2.94456 2.530824 4.14 1.9661040000000003C4.74216 1.681656 5.257896000000001 1.552872 5.958216 1.512072C6.382896000000001 1.487352 6.4776240000000005 1.4590800000000002 6.646272 1.306704C6.776928000000001 1.188672 6.854640000000001 1.051728 6.883871999999999 0.888C6.929808 0.630768 6.850295999999999 0.390192 6.657431999999999 0.20275200000000002C6.497256 0.047088 6.345432 -0.000936 6.029088 0.004032C5.887704 0.0062640000000000005 5.7288 0.011736 5.676 0.016224000000000002M6.492 2.58384C6.263352 2.597496 5.939112 2.6442 5.748 2.691C3.995088 3.120168 2.731176 4.690848 2.707416 6.469583999999999C2.704224 6.707592 2.7101040000000003 6.747552000000001 2.766288 6.870264000000001C3.0324240000000002 7.451616 3.8300640000000006 7.469856000000001 4.120872 6.901248000000001C4.168512 6.808104 4.1862 6.725327999999999 4.20288 6.517248C4.229928 6.180192 4.2608880000000005 6.008064 4.333896 5.789208C4.458216 5.416488 4.651536 5.1048480000000005 4.9362 4.818288C5.370864 4.380696 5.944848 4.125 6.575232000000001 4.088112C6.882312 4.070136 7.048224 4.014264 7.194192 3.8797200000000003C7.559184 3.543288 7.506816 2.9604 7.087584 2.693424C6.9823200000000005 2.626392 6.746472000000001 2.561184 6.649584 2.5723200000000004C6.62892 2.574696 6.558 2.57988 6.492 2.58384M9.36 3.541272C8.951232000000001 3.6289200000000004 8.694672 3.7928159999999997 8.226912 4.2651840000000005C7.813272 4.682904000000001 7.767744 4.759728 7.767744 5.04C7.767744 5.255496000000001 7.821168 5.393928000000001 7.964256 5.5491600000000005C8.120087999999999 5.718216 8.251344 5.772 8.508000000000001 5.772C8.809272 5.772 8.89224 5.727215999999999 9.23892 5.377416C9.390144 5.224824 9.541344 5.081160000000001 9.57492 5.058168C9.644184000000001 5.01072 9.816096 5.00232 9.895584 5.042496000000001C9.924408 5.057088 11.608464 6.728376 13.637904 8.756472L17.327832 12.443952000000001 16.353168 13.418832000000002L15.378504 14.393712000000003 15.291264 14.373456000000001C15.118704000000001 14.333424 14.770992 14.321952000000001 14.564256000000002 14.349504C13.788288 14.452895999999999 13.208568 14.811408000000002 12.775032000000001 15.456C12.617688 15.689928 12.497544 15.984984 12.428136000000002 16.308C12.39072 16.482024 12.390432 17.05692 12.427680000000002 17.208000000000002L12.454296 17.316 11.909256000000001 17.862072L11.364216 18.408168 7.71972 14.766072000000001C5.71524 12.762936 4.043880000000001 11.08188 4.0056 11.0304C3.950736 10.956624 3.936 10.9116 3.936 10.817784L3.936 10.698768 4.386 10.239264C4.693176 9.925632 4.854768 9.741719999999999 4.895160000000001 9.659880000000001C4.964040000000001 9.52032 4.987056 9.279864 4.946064000000001 9.127704000000001C4.877472 8.87292 4.624848 8.641008 4.366368 8.59548C4.188936 8.564232 3.9896160000000003 8.59536 3.852 8.675856000000001C3.7992000000000004 8.706719999999999 3.5334480000000004 8.956992000000001 3.261432 9.231984C2.71968 9.779688 2.627328 9.908184 2.505504 10.284C2.382624 10.663008 2.404632 11.156664 2.560896 11.526192C2.712624 11.885064 2.628744 11.797512 7.4514000000000005 16.629432C9.986136 19.169040000000003 12.154248 21.329520000000002 12.269424 21.430512C12.511704000000002 21.642936 12.77148 21.78972 13.044 21.868176C13.199952000000001 21.913056 13.292328 21.923256000000002 13.536 21.922439999999998C13.846128 21.921384 13.938839999999999 21.904296 14.208 21.798432000000002C14.481768 21.690792000000002 14.680704 21.542112 15.055079999999998 21.165336C15.250368 20.9688 15.416256000000002 20.808 15.423696 20.808C15.43116 20.808 15.498192000000001 20.863896 15.57264 20.932176C15.933816 21.263544 16.601496 21.703775999999998 17.090591999999997 21.933024C17.496912000000002 22.123488000000002 17.653176 22.178208 20.457624 23.11188C23.093928 23.98956 23.146056 24.005760000000002 23.295744 23.99376C23.669664 23.963736 23.965104 23.676576 23.99412 23.314968C24.015936 23.04324 23.896488 22.784664 23.682648 22.64076C23.599704000000003 22.58496 22.862712000000002 22.329192000000003 20.82744 21.649944C18.476928 20.86548 18.035616 20.710895999999998 17.746104000000003 20.570664C17.368728 20.387832000000003 17.10276 20.226144 16.8 19.995504C16.541496000000002 19.798560000000002 14.159136000000002 17.431944 14.048928 17.262624C13.823496 16.916256 13.86348 16.446096 14.14488 16.134624C14.38752 15.866040000000002 14.847792 15.768816 15.172608 15.917520000000001C15.242688 15.949608000000001 16.143504 16.538256 17.174400000000002 17.225592C18.20532 17.912952 19.095984 18.499416 19.15368 18.528864C19.293120000000002 18.6 19.511496 18.616368 19.67448 18.567912C20.049504 18.456408000000003 20.281992 18.081888000000003 20.20572 17.712144C20.149656 17.44044 20.052552000000002 17.3262 19.65312 17.062104C19.508688 16.966608 19.393536 16.879728 19.397256000000002 16.869024C19.400976 16.858344000000002 19.6416 16.603488000000002 19.932000000000002 16.302672C20.2224 16.001856 20.50236 15.691775999999999 20.554128000000002 15.613584000000001C20.88192 15.118512 20.945808 14.470488000000001 20.721287999999998 13.917912000000001C20.576712 13.562136000000002 20.569944 13.554839999999999 17.934552 10.916447999999999L15.425880000000001 8.40492 15.542928 8.318760000000001C15.695664 8.206392 16.02444 8.036856 16.236 7.961400000000001C16.558752 7.846296 16.780464000000002 7.812431999999999 17.196 7.814760000000001C17.618928 7.817112000000001 17.843376000000003 7.860456 18.225863999999998 8.013624C18.6102 8.167512 18.543768 8.118864 21.293856 10.26C22.107672 10.8936 22.841568 11.448168 22.924752 11.492376C23.068944000000002 11.568984 23.085504 11.572272 23.28 11.562672000000001C23.517096000000002 11.55096 23.637624 11.499960000000002 23.78352 11.349624C23.938296 11.190144 23.988144 11.061504000000001 23.987184 10.824C23.986248 10.5936 23.93244 10.44816 23.798640000000002 10.314312C23.701704 10.217304 19.930584 7.28724 19.632 7.0769280000000006C19.002408000000003 6.633431999999999 18.274944 6.374447999999999 17.4774 6.309792000000001C16.45308 6.226776 15.370895999999998 6.547968 14.556000000000001 7.17684C14.4768 7.237968 14.397456 7.296456 14.379696000000001 7.306824000000001C14.35692 7.32012 13.844016 6.823752 12.639696 5.622936C10.89636 3.884664 10.788888 3.786624 10.476 3.649464C10.162152 3.511896 9.704112 3.4674720000000003 9.36 3.541272M6.612 6.776064000000001C6.452640000000001 6.82896 6.375768 6.878184 6.261264000000001 7.000584C6.106896 7.165608000000001 6.0633360000000005 7.2936 6.0764640000000005 7.543632C6.0888480000000005 7.779599999999999 6.137904000000001 7.880904 6.351504 8.111640000000001L6.48588 8.256768 6.425496 8.348016C6.015072 8.968200000000001 5.908272 9.855624 6.156288 10.584864C6.235512 10.817736 6.363288 11.072472000000001 6.474648 11.219424C6.588816 11.370096 6.748248 11.491632 7.008 11.625984C7.89444 12.084504 8.922504 12.010272 9.744 11.42844C9.8298 11.367672 10.0242 11.192328 10.176 11.0388C10.394928 10.817376 10.484256 10.744463999999999 10.608 10.686096000000001C10.895544 10.55052 11.249496 10.542048000000001 11.52552 10.664112000000001C11.648256 10.7184 11.662416 10.733064 11.706264000000001 10.851504C11.848320000000001 11.235144 11.759304 11.699784 11.490288 11.978808C11.19552 12.28452 10.914504 12.485976 10.648512 12.58224C10.515984 12.630216 10.454784 12.636000000000001 10.08 12.636000000000001C9.612384 12.636000000000001 9.571104 12.645216000000001 9.367776000000001 12.795216C9.189192 12.926976000000002 9.085344 13.141992 9.085344 13.38C9.085344 13.714632 9.299520000000001 14.005296 9.618 14.10288C9.821712 14.165304 10.521384000000001 14.165448 10.788 14.10312C11.0364 14.045040000000002 11.346792 13.935216 11.546208 13.834848000000001L11.704392 13.755216 11.878536 13.930512C12.120144 14.173775999999998 12.218496 14.22012 12.492 14.219591999999999C12.734328 14.219136000000002 12.835560000000001 14.180952000000001 13.00836 14.024808C13.158144 13.889496000000001 13.232832000000002 13.710888 13.232832000000002 13.488C13.232832000000002 13.256256000000002 13.168872 13.113816 12.962520000000001 12.886008L12.819384 12.727992 12.866976000000001 12.658008C12.951192 12.534047999999999 13.085232 12.256608 13.143432 12.085704000000002C13.321944 11.561472 13.32324 10.923984 13.146816 10.404C13.08768 10.229712000000001 12.909863999999999 9.877368 12.814752 9.746088C12.702192000000002 9.590688 12.323064 9.353256 11.983392 9.225408C11.674512 9.109128 11.510760000000001 9.083904 11.076 9.085560000000001C10.71432 9.086952 10.641552 9.094248 10.435056 9.149904C9.933 9.28524 9.578976 9.501168 9.144264000000002 9.937176C8.825688000000001 10.256688 8.706624 10.334472 8.452824000000001 10.388784C8.19588 10.443768 7.845864000000001 10.396080000000001 7.6876560000000005 10.284504C7.5318 10.174608000000001 7.481304000000001 9.70452 7.591343999999999 9.38808C7.668888 9.165096 7.751472000000001 9.0558 8.034144 8.802048000000001C8.455872 8.423447999999999 8.733 8.322768 9.32388 8.333472C9.660168 8.339568000000002 9.690816 8.336352 9.787080000000001 8.284968C9.945960000000001 8.200128000000001 10.072008 8.073048 10.145280000000001 7.923864C10.237344 7.736376 10.240704000000001 7.462512 10.153128 7.284C10.060248000000001 7.09464 9.891888 6.946536000000001 9.703248 6.888288C9.20472 6.734304 8.331719999999999 6.849648 7.772808 7.143336000000001L7.604760000000001 7.231656000000001 7.420368000000001 7.0488480000000004C7.310232000000001 6.939624 7.190352000000001 6.845952 7.122624 6.816168C6.978456 6.75276 6.738912 6.733944 6.612 6.776064000000001M17.582424 14.325576L16.769232 15.139032 17.42028 15.573528000000001C17.77836 15.812496000000001 18.081336 16.008 18.093528000000003 16.008C18.122040000000002 16.008 19.274448 14.821319999999998 19.31316 14.752128C19.353 14.680848000000001 19.351248000000002 14.531256 19.309608 14.452800000000002C19.290696 14.41716 19.077312000000003 14.190912 18.83544 13.950047999999999L18.39564 13.512096000000001 17.582424 14.325576M12.845496 19.062504L12.431424 19.47708 12.881712000000002 19.924944C13.129368000000001 20.17128 13.362408000000002 20.384328 13.399560000000001 20.398416C13.492895999999998 20.433768 13.59828 20.430408000000003 13.675199999999998 20.389656C13.71084 20.370768 13.877664 20.21676 14.045928 20.047392L14.351856000000002 19.739472 13.805712000000002 19.193712L13.259544 18.647928 12.845496 19.062504"
    stroke="none" fill="currentcolor" fill-rule="evenodd"></path>
</svg>