<svg xmlns="http://www.w3.org/2000/svg" width="24" height="24" viewBox="0 0 24 24" version="1.1"
  id="Saving-Safe--Streamline-Ultimate">
  <path
    d="M1.836 0.02652C1.6269600000000002 0.056808000000000004 1.384152 0.135312 1.177176 0.239544C0.626064 0.517104 0.250848 1.0136880000000001 0.064176 1.7126640000000002L0.012 1.9080000000000001 0.012 11.28L0.012 20.652 0.066912 20.868000000000002C0.203712 21.40608 0.538896 21.862272 1.0024080000000002 22.141272C1.459344 22.416312 1.8780240000000001 22.511400000000002 2.634 22.511808L3 22.512 3.0000240000000002 22.962C3.000048 23.40852 3.000576 23.413128 3.0691680000000003 23.556C3.334296 24.10824 4.072752 24.155160000000002 4.389768 23.639904C4.48392 23.486904 4.511592 23.311416 4.511808 22.866L4.5120000000000005 22.512 12 22.512L19.488 22.512 19.488 22.879584C19.488 23.08176 19.499544 23.309616000000002 19.513632 23.385912C19.60212 23.864520000000002 20.124864 24.137808 20.556 23.930832000000002C20.73132 23.846664 20.857032 23.719464000000002 20.938344 23.544C20.997024 23.417424 20.999544 23.393544000000002 20.999760000000002 22.962L21 22.512 21.39 22.511376000000002C22.11504 22.510224 22.398504 22.461888000000002 22.788 22.27296C23.20944 22.068528 23.514096000000002 21.763344 23.735352 21.324C23.854392 21.087576000000002 23.975592 20.69076 23.97636 20.534928C23.976648 20.477712 23.98224 20.46852 24 20.496C24.015048 20.519280000000002 24.023400000000002 17.256144 24.02364 11.263416000000001C24.023880000000002 5.109864 24.015936 1.98984 24 1.98C23.986800000000002 1.97184 23.976 1.9297440000000001 23.976 1.886424C23.976 1.7518319999999998 23.883912000000002 1.437216 23.782128 1.224C23.508816 0.651576 23.021664 0.27036000000000004 22.300488 0.06463200000000001L22.116 0.012 12.048 0.008832C6.451512 0.007056 1.91604 0.014928 1.836 0.02652M1.9369679999999998 1.5506879999999998C1.7866799999999998 1.596888 1.652928 1.732272 1.58076 1.9112400000000003L1.524 2.052 1.51788 11.243424000000001C1.512264 19.652496000000003 1.5150480000000002 20.444808 1.550544 20.551632C1.625928 20.778624 1.81164 20.915232 2.126304 20.975088C2.23008 20.99484 4.904832 21.000168 12.120000000000001 20.995032000000002C21.625656 20.98824 21.976008 20.986439999999998 22.085928 20.943768000000002C22.228224 20.88852 22.363872 20.738496 22.428048 20.565383999999998C22.475687999999998 20.436864 22.476 20.374344 22.476 11.208L22.476 1.98 22.418808 1.86384C22.3482 1.7203920000000001 22.218432 1.6230240000000002 22.01352 1.5597360000000002C21.860232 1.5124080000000002 21.775728 1.512024 11.95548 1.5136800000000001C3.3041760000000004 1.51512 2.037456 1.519824 1.9369679999999998 1.5506879999999998M0.01188 11.28C0.01188 16.381800000000002 0.01464 18.468912 0.018000000000000002 15.918000000000001C0.02136 13.367111999999999 0.02136 9.192912 0.018000000000000002 6.642C0.01464 4.091112 0.01188 6.1782 0.01188 11.28M6.28176 3.037824C5.435568 3.1915199999999997 4.804536 3.78924 4.585992 4.644C4.503 4.968624 4.488408 5.227632000000001 4.488192000000001 6.378L4.488 7.488 4.134 7.488192C3.688584 7.488408 3.513096 7.5160800000000005 3.360096 7.610232000000001C2.84484 7.9272480000000005 2.89176 8.665704000000002 3.444 8.930832C3.586872 8.999424 3.5914800000000002 8.999952 4.038 8.999976L4.488 9 4.488 11.244L4.488 13.488 4.134 13.488192000000002C3.688584 13.488408000000002 3.513096 13.516079999999999 3.360096 13.610232C2.84484 13.927248 2.89176 14.665704000000002 3.444 14.930832000000002C3.5867999999999998 14.999400000000001 3.5916959999999998 14.999952000000002 4.035888 14.999976L4.483776000000001 15 4.4946 16.302C4.5039359999999995 17.423064 4.511184 17.629008000000002 4.546848 17.784C4.7478 18.657408 5.341968 19.227672000000002 6.288 19.455096C6.4585680000000005 19.496088 6.788976000000001 19.498776 12.588000000000001 19.506192000000002C18.793656 19.514112 19.077744 19.510800000000003 19.404 19.426488C19.633416 19.367184 20.010024 19.171680000000002 20.195376000000003 19.015656C20.535408 18.729408000000003 20.793024 18.314064000000002 20.922096 17.844L20.988 17.604 20.988 11.22L20.988 4.836 20.933856000000002 4.632C20.821991999999998 4.210536 20.610768 3.8634960000000005 20.293775999999998 3.580368C20.028336 3.343272 19.724808 3.185688 19.300488 3.064632L19.116 3.012 12.792 3.007992C7.442544 3.0046079999999997 6.439296 3.009216 6.28176 3.037824M6.422256 4.560216C6.270312 4.619568 6.175032 4.710432 6.108024 4.86C6.007008 5.085432 6 5.182632000000001 6 6.358344L6 7.482311999999999 6.462 7.492536C6.875832 7.50168 6.936504 7.508352 7.0440000000000005 7.556520000000001C7.185672 7.62 7.352735999999999 7.774776 7.4198640000000005 7.904712C7.575431999999999 8.205888 7.4861759999999995 8.624352 7.221696 8.833824C7.0391520000000005 8.9784 6.938016 9 6.4437359999999995 9L6 9 6 11.241144L6 13.482312 6.462 13.492536C6.875832 13.501680000000002 6.936504 13.508351999999999 7.0440000000000005 13.55652C7.185672 13.620000000000001 7.352735999999999 13.774776 7.4198640000000005 13.904712000000002C7.575431999999999 14.205888000000002 7.4861759999999995 14.624352 7.221696 14.833824000000002C7.03908 14.978472 6.938136 15 6.442728 15L5.997984 15 6.004992 16.242L6.0120000000000005 17.484 6.0840000000000005 17.628C6.142440000000001 17.744904 6.179904 17.786232 6.283032 17.847672C6.560664 18.013032 6.06924 18.00204 12.852 17.994648C18.732096000000002 17.988264 18.976464 17.986272 19.085928 17.943768000000002C19.228224 17.88852 19.363872 17.738496 19.428048 17.565383999999998C19.47552 17.437272 19.476 17.37516 19.476 11.208L19.476 4.98 19.418808 4.86384C19.3482 4.720392 19.218432 4.623024 19.01352 4.559736C18.86088 4.5126 18.78168 4.512024 12.69948 4.513128C6.688488 4.514208 6.537168 4.515359999999999 6.422256 4.560216M12.516 6.031872C12.316944000000001 6.109920000000001 12.164568000000001 6.246048 12.06804 6.432C12.014256 6.535656 12.01152 6.56688 12 7.208712L11.988 7.877424 11.808 7.929792000000001C11.611032 7.987128000000001 11.326464 8.094432 11.232000000000001 8.14704C11.173344 8.179704000000001 11.16372 8.172264 10.8 7.81356C10.585968 7.602456 10.382136000000001 7.4232000000000005 10.32 7.391376C10.245168 7.353024 10.156728000000001 7.332864 10.032 7.325664C9.795912000000001 7.312080000000001 9.627888 7.372631999999999 9.470088 7.5282C9.306023999999999 7.689960000000001 9.257784 7.798392 9.244824000000001 8.034528C9.228696 8.328432 9.291936 8.442408 9.69252 8.841192L10.00308 9.150408 9.888576 9.321192C9.684912 9.625032000000001 9.492264 10.051392 9.408504 10.38372L9.383376 10.483464 8.729688000000001 10.492224C8.110608000000001 10.500528 8.06964 10.503888 7.956 10.555632C7.8140160000000005 10.620312 7.646976 10.775328 7.580400000000001 10.904208C7.42344 11.208072 7.511688 11.622672000000001 7.778304 11.833824C7.973039999999999 11.988072 8.042544 12 8.745864000000001 12L9.379224 12 9.408936 12.126C9.48468 12.447263999999999 9.752640000000001 13.016952000000002 9.936528 13.247664L10.0032 13.331328 9.685584 13.657848C9.31212 14.041800000000002 9.256824 14.13516 9.243936 14.403576000000001C9.23628 14.563224000000002 9.243696 14.606231999999999 9.300816 14.733528000000002C9.428088 15.017112 9.673656000000001 15.176256000000002 9.984 15.176256000000002C10.269168 15.176256000000002 10.341312 15.132672000000001 10.78032 14.695056L11.156616 14.319936 11.29632 14.382264C11.502384000000001 14.474207999999999 11.731272 14.55684 11.874 14.590800000000002L12 14.620776 12 15.254136C12 15.817416 12.005016 15.90072 12.045432 16.00704C12.174936 16.347912 12.517296 16.54512 12.879287999999999 16.4874C13.118927999999999 16.449192 13.338168 16.277184000000002 13.444368 16.044C13.496112 15.93036 13.499471999999999 15.889392 13.507776 15.270312L13.516535999999999 14.616624 13.616280000000001 14.590992C13.808760000000001 14.541504 13.957680000000002 14.488920000000002 14.143128 14.404992L14.330231999999999 14.320295999999999 14.683128000000002 14.669016C15.082512 15.063672 15.175056 15.130104000000001 15.376464 15.166632C15.720504 15.229032 16.048416 15.05748 16.196568 14.737608C16.246272 14.630256000000001 16.258248000000002 14.568336 16.257504 14.422416C16.256111999999998 14.154504 16.204944 14.066952 15.820992 13.675632L15.498816 13.347264 15.634368 13.14144C15.846888000000002 12.818736000000001 15.988272 12.493896 16.118088 12.030000000000001C16.124544 12.006960000000001 16.275528 12 16.769256000000002 11.999976L17.412 11.999952 17.556 11.930832C18.10824 11.665704000000002 18.155160000000002 10.927248 17.639904 10.610232C17.475096 10.508808 17.311944 10.488384 16.664664 10.488192L16.109351999999998 10.488 16.092528 10.398C16.042752 10.13148 15.820968 9.63432 15.614591999999998 9.326568000000002L15.50364 9.161112000000001 15.817512 8.839751999999999C16.198488 8.44968 16.258944 8.342688 16.25748 8.060976C16.256352 7.840584 16.180680000000002 7.661184 16.03236 7.527191999999999C15.859560000000002 7.371048 15.758328 7.332864 15.516 7.332408C15.217872 7.331832 15.163632 7.364376 14.709528 7.815984L14.335056 8.188392 14.205744 8.122848C14.056704000000002 8.047343999999999 13.733544 7.932048 13.602 7.907472L13.512 7.890648 13.511807999999998 7.335336000000001C13.511712000000001 7.029888 13.500623999999998 6.7122 13.487184000000001 6.629327999999999C13.427232 6.2598 13.113648000000001 5.99724 12.737736000000002 6.001824C12.655392 6.002832 12.5556 6.016344 12.516 6.031872M12.325464000000002 9.350136000000001C11.630256 9.505272 11.055504 10.056264 10.866696000000001 10.748544C10.8276 10.891896000000001 10.816632 11.002824 10.816464 11.256C10.816248 11.540448 10.824216 11.606376 10.88172 11.796C10.964304 12.068448 11.081736 12.286752 11.25348 12.487176C11.527872 12.807336000000001 11.831304000000001 13.007952000000001 12.204 13.115616000000001C13.297656 13.431503999999999 14.429496000000002 12.750336 14.653272 11.641584C14.708424 11.368392 14.691312000000002 10.930392 14.616167999999998 10.692C14.420208 10.07028 13.931184 9.581159999999999 13.308 9.38352C13.084296 9.312552 12.571848000000001 9.295152 12.325464000000002 9.350136000000001"
    stroke="none" fill="currentcolor" fill-rule="evenodd"></path>
</svg>