<svg width="24" height="24" viewBox="0 0 24 24" fill="none" xmlns="http://www.w3.org/2000/svg">
<path fill-rule="evenodd" clip-rule="evenodd" d="M8.93099 7.01113C8.8721 7.02882 8.78394 7.09315 8.7463 7.14589C8.69653 7.21562 5.0683 13.1129 5.03406 13.1797C4.99326 13.2593 4.98862 13.3805 5.02283 13.473C5.06088 13.5758 5.15248 13.662 5.25868 13.6948C5.3351 13.7184 5.36741 13.719 6.54162 13.719H7.74617L7.74936 15.864C7.75247 17.9486 7.7532 18.0107 7.77566 18.069C7.80854 18.1544 7.91372 18.2568 7.9968 18.2844C8.13972 18.3319 8.29388 18.2978 8.39041 18.1974C8.42936 18.1568 12.0836 12.2336 12.1453 12.111C12.1569 12.0879 12.1688 12.0312 12.1717 11.985C12.1817 11.8253 12.108 11.7007 11.9605 11.6281L11.8811 11.589L10.654 11.5856L9.42694 11.5822L9.42374 9.43761C9.42014 7.0214 9.42928 7.23999 9.32713 7.12395C9.25516 7.04219 9.15742 6.9987 9.04855 7.00003C9.00235 7.00059 8.94944 7.00559 8.93099 7.01113ZM7.35584 10.8304L6.04714 12.957L7.12784 12.9633C7.89188 12.9677 8.21978 12.9736 8.2469 12.9833C8.34064 13.0167 8.43245 13.1035 8.47616 13.2C8.49494 13.2414 8.49703 13.3775 8.50255 14.9216L8.50855 16.5982L9.81726 14.4716L11.126 12.345L10.0393 12.339C8.9557 12.333 8.95238 12.3329 8.8962 12.3069C8.82404 12.2736 8.73593 12.1855 8.70259 12.1133L8.67655 12.057L8.67055 10.3804L8.66455 8.70374L7.35584 10.8304Z" fill="#2FD754"/>
<path fill-rule="evenodd" clip-rule="evenodd" d="M3.384 2.36746C3.3642 2.37394 3.3048 2.39736 3.252 2.41951C3.14182 2.46571 0.806952 4.31669 0.656352 4.47722C0.46128 4.68516 0.478968 3.83738 0.47976 12.946L0.48048 21.0807L0.536664 21.2034C0.61212 21.3683 0.714672 21.4802 0.868344 21.5653L0.996 21.636L10.0848 21.6421C19.1547 21.6482 19.1738 21.6481 19.3032 21.5997C19.4584 21.5417 19.6288 21.3825 19.7081 21.2215C19.7619 21.1122 19.7643 21.0835 19.7711 20.4431L19.7781 19.7781L20.4431 19.7711C21.0835 19.7643 21.1122 19.7619 21.2215 19.7081C21.3823 19.6289 21.5417 19.4584 21.5996 19.3035C21.6463 19.1787 21.648 19.1197 21.648 17.6048V16.0354L22.302 16.0277C22.9499 16.0201 22.9572 16.0194 23.088 15.9573C23.2384 15.8859 23.3809 15.7523 23.4564 15.612L23.508 15.516V12.468V9.42L23.4435 9.31034C23.3528 9.15598 23.2413 9.05203 23.088 8.97895C22.9571 8.9165 22.9507 8.91593 22.3024 8.9083L21.6487 8.90057L21.6424 5.8843L21.636 2.868L21.581 2.76502C21.5107 2.63345 21.3666 2.48926 21.235 2.41898L21.132 2.364L12.276 2.35982C7.4052 2.35754 3.4038 2.36098 3.384 2.36746ZM3.59436 4.02624L3.36072 4.212L11.2984 4.224L19.236 4.236L19.3487 4.29151C19.4923 4.36224 19.6283 4.49818 19.7043 4.64714L19.764 4.764L19.7704 6.834L19.7768 8.904H19.9684H20.16V6.372V3.84L11.994 3.84024L3.828 3.84048L3.59436 4.02624ZM1.968 12.936V20.16H10.128H18.288V18.0971V16.0342L17.166 16.0271C16.0531 16.02 16.043 16.0195 15.924 15.9648C15.858 15.9344 15.7674 15.875 15.7227 15.8328C15.6779 15.7905 15.098 15.1048 14.4339 14.3088C13.1304 12.7464 13.128 12.743 13.128 12.468C13.128 12.1932 13.1307 12.1893 14.4327 10.6272C15.0961 9.83124 15.6809 9.14335 15.7322 9.09854C15.7836 9.05374 15.8747 8.99434 15.9348 8.96654C16.0401 8.9178 16.084 8.91574 17.166 8.9087L18.288 8.90138V7.3067V5.712H10.128H1.968V12.936ZM16.4576 10.5423C16.3862 10.6246 15.9967 11.0898 15.5921 11.5759C14.9937 12.2949 14.8608 12.4674 14.88 12.4999C14.893 12.522 15.279 12.9882 15.7378 13.536L16.572 14.532L19.302 14.5362L22.032 14.5403V12.4682V10.3962L19.3098 10.3944L16.5876 10.3926L16.4576 10.5423ZM17.0094 11.7369C16.7989 11.7723 16.5951 11.9303 16.4841 12.144C16.403 12.3002 16.4029 12.6357 16.484 12.792C16.5633 12.9448 16.7147 13.0921 16.8576 13.1554C16.9699 13.2051 17.0241 13.2103 17.5133 13.2194C18.2721 13.2333 18.4572 13.1904 18.66 12.9535C19.0355 12.5149 18.7848 11.8282 18.216 11.7373C18.0362 11.7086 17.1795 11.7083 17.0094 11.7369ZM19.776 17.16V18.288H19.968H20.16V17.16V16.032H19.968H19.776V17.16Z" fill="black"/>
</svg>
